<?xml version="1.0" standalone="no"?>
<!DOCTYPE svg PUBLIC "-//W3C//DTD SVG 20010904//EN"
 "http://www.w3.org/TR/2001/REC-SVG-20010904/DTD/svg10.dtd">
<svg version="1.0" xmlns="http://www.w3.org/2000/svg"
 width="464.000000pt" height="464.000000pt" viewBox="0 0 464.000000 464.000000"
 preserveAspectRatio="xMidYMid meet">
<metadata>
Created by potrace 1.11, written by Peter Selinger 2001-2013
</metadata>
<g transform="translate(0.000000,464.000000) scale(0.100000,-0.100000)"
fill="#000000" stroke="none">
<path d="M1835 4519 c-4 -6 -5 -12 -2 -15 2 -3 7 2 10 11 7 17 1 20 -8 4z"/>
<path d="M1871 4517 c-1 -11 -6 -15 -13 -11 -7 5 -8 3 -3 -5 10 -16 29 2 22
21 -4 8 -6 7 -6 -5z"/>
<path d="M1893 4509 c-2 -23 3 -25 10 -4 4 8 3 16 -1 19 -4 3 -9 -4 -9 -15z"/>
<path d="M1947 4524 c-3 -3 -3 -13 1 -22 5 -15 3 -15 -10 -4 -11 9 -18 10 -23
2 -4 -6 -1 -9 7 -8 7 2 12 -3 11 -9 -2 -7 4 -13 12 -13 8 0 15 -4 15 -10 0 -5
-8 -10 -18 -10 -10 0 -24 -6 -31 -12 -11 -11 -12 -10 -6 1 5 9 3 12 -6 9 -8
-3 -13 -11 -11 -18 2 -10 -1 -10 -14 1 -10 8 -15 9 -11 3 4 -7 0 -17 -8 -24
-8 -7 -15 -9 -15 -5 0 4 -6 3 -13 -4 -10 -8 -17 -7 -25 1 -9 9 -12 9 -12 -1 0
-7 -4 -9 -10 -6 -5 3 -10 1 -10 -4 0 -6 -8 -11 -17 -11 -10 0 -27 -7 -37 -15
-10 -8 -23 -12 -27 -9 -5 3 -9 0 -9 -7 0 -7 -3 -9 -7 -6 -4 4 -20 -5 -37 -20
-17 -16 -24 -19 -16 -9 14 18 14 18 -7 6 -12 -8 -19 -18 -17 -22 3 -4 0 -9 -5
-9 -6 -1 -15 -2 -20 -3 -5 0 -13 -5 -18 -10 -5 -5 -3 -6 5 -2 6 4 12 2 12 -3
0 -10 -17 -15 -47 -14 -7 1 -11 -3 -8 -7 2 -4 -3 -16 -11 -26 -9 -10 -13 -14
-10 -8 3 6 -1 11 -8 11 -8 0 -12 -7 -8 -15 3 -10 1 -13 -6 -8 -7 4 -15 1 -18
-8 -3 -9 -12 -16 -20 -16 -8 0 -14 -5 -14 -11 0 -5 -3 -8 -7 -6 -5 3 -17 -5
-28 -16 -11 -11 -13 -16 -5 -12 12 7 13 6 3 -7 -7 -8 -9 -19 -5 -23 4 -5 1 -5
-6 -1 -7 4 -15 1 -18 -8 -3 -9 -9 -14 -13 -12 -4 3 -15 -6 -25 -20 -20 -25
-36 -31 -36 -13 0 5 6 7 13 3 6 -4 8 -3 4 1 -4 5 -14 10 -23 11 -13 2 -13 -1
1 -23 10 -14 12 -22 6 -19 -6 4 -14 1 -17 -8 -8 -20 -36 -29 -45 -14 -4 7 -11
10 -14 6 -3 -3 1 -12 9 -21 8 -8 12 -18 8 -21 -3 -4 -14 3 -23 15 -16 21 -16
21 -14 -20 2 -34 0 -41 -13 -36 -12 4 -13 3 -2 -10 9 -11 9 -15 1 -15 -7 0 -9
-5 -5 -12 4 -7 -3 -4 -17 7 -13 11 -18 13 -12 5 17 -19 16 -33 -1 -27 -8 3
-13 -1 -12 -11 0 -10 -5 -16 -13 -14 -8 2 -11 -3 -8 -13 4 -8 1 -15 -5 -15 -6
0 -5 -6 3 -17 8 -10 9 -14 2 -10 -7 4 -17 0 -23 -10 -9 -15 -10 -14 -6 7 3 14
3 19 0 12 -3 -6 -9 -10 -13 -7 -4 2 -7 -9 -6 -25 1 -19 -3 -30 -11 -30 -7 0
-16 -4 -19 -10 -4 -6 1 -7 12 -4 13 4 11 0 -7 -16 -14 -12 -19 -19 -12 -15 6
3 12 1 12 -4 0 -6 -5 -11 -11 -11 -5 0 -7 -4 -4 -10 3 -5 1 -10 -5 -10 -6 0
-8 -4 -5 -10 3 -5 1 -10 -5 -10 -6 0 -9 -4 -6 -8 3 -5 -1 -20 -9 -35 -7 -14
-11 -28 -7 -31 3 -3 0 -6 -7 -6 -7 0 -9 -4 -6 -10 3 -5 2 -18 -4 -27 -12 -23
-22 -77 -24 -130 -1 -24 -6 -43 -10 -43 -5 0 -5 -5 -1 -11 3 -6 0 -15 -7 -20
-12 -7 -12 -9 0 -9 11 0 11 -3 0 -17 -8 -9 -9 -14 -3 -10 6 3 11 0 11 -8 0 -8
-4 -12 -9 -9 -13 8 -10 -10 5 -25 10 -12 9 -13 -7 -7 -14 5 -16 3 -9 -6 6 -7
9 -41 8 -75 -2 -36 1 -63 7 -63 5 0 6 -4 3 -10 -3 -5 2 -10 12 -10 15 0 16 -2
3 -10 -8 -5 -10 -10 -5 -10 6 0 11 -21 12 -47 0 -26 6 -49 12 -51 6 -2 9 -8 5
-13 -3 -5 -1 -9 4 -9 6 0 8 -9 5 -20 -3 -11 -1 -20 5 -20 14 0 22 -36 10 -48
-6 -6 -3 -15 7 -26 11 -11 14 -23 9 -34 -4 -9 -6 -23 -5 -30 1 -7 -5 -33 -15
-57 -15 -41 -16 -122 -1 -180 3 -11 13 -51 23 -90 30 -123 82 -206 194 -313
42 -40 92 -67 141 -76 63 -11 97 -50 105 -121 1 -13 15 -103 20 -129 7 -40 37
-163 49 -206 12 -42 22 -87 31 -150 3 -14 6 -54 8 -88 3 -54 1 -66 -16 -80
-11 -10 -31 -36 -45 -60 -14 -24 -49 -65 -77 -92 -31 -29 -66 -76 -86 -117
-68 -135 -116 -193 -205 -248 -33 -20 -74 -51 -91 -67 -18 -16 -76 -51 -129
-77 l-98 -47 64 -50 c303 -239 620 -387 1013 -470 107 -23 151 -27 381 -31
285 -6 385 3 600 54 338 79 686 254 955 481 52 44 106 91 119 105 l23 26 -43
12 c-24 7 -48 13 -54 15 -5 1 -55 17 -110 34 -55 18 -129 40 -165 50 -36 10
-111 40 -168 67 -84 42 -118 65 -190 134 -48 46 -122 111 -164 144 -92 72
-103 87 -87 118 16 31 161 249 177 266 19 20 92 168 114 231 31 91 59 239 64
340 2 52 6 113 8 135 3 39 39 139 57 161 10 12 35 159 43 249 5 58 13 110 16
110 1 0 3 7 5 15 8 38 11 45 20 52 6 5 6 8 -1 8 -7 0 -10 12 -7 28 2 15 5 43
7 62 2 19 7 43 11 52 3 9 8 25 10 35 2 10 4 19 5 21 2 1 3 10 4 20 1 9 7 27
14 38 6 12 8 24 5 28 -3 3 -1 6 6 6 7 0 10 4 7 9 -4 5 -3 11 1 13 10 4 43 69
48 94 2 10 4 20 5 22 2 1 4 7 5 12 1 6 4 11 5 13 1 1 4 35 6 76 1 40 5 79 8
87 3 7 0 16 -5 20 -6 3 -9 15 -6 25 3 10 1 21 -4 24 -4 3 -6 12 -3 20 3 7 -2
25 -11 39 -10 14 -14 26 -10 26 4 0 1 8 -6 17 -12 14 -12 16 1 9 8 -4 6 0 -4
8 -11 9 -16 16 -10 16 5 0 3 4 -4 9 -8 5 -15 20 -15 34 -1 14 -4 25 -7 25 -18
-1 -21 4 -10 17 11 13 10 14 -6 9 -10 -4 -16 -4 -12 1 4 4 -2 24 -14 44 -13
20 -21 37 -18 38 3 1 -5 13 -17 26 -12 14 -19 28 -16 31 4 3 1 6 -6 6 -7 0 -9
5 -6 10 3 6 0 10 -8 10 -8 0 -21 8 -28 18 -13 16 -13 16 6 2 20 -14 20 -14 1
7 -10 13 -23 20 -29 16 -6 -3 -7 -1 -3 6 4 6 0 14 -8 17 -9 3 -16 12 -16 19 0
7 -8 19 -17 26 -17 13 -17 13 -3 -6 14 -19 14 -19 -2 -6 -10 7 -18 19 -18 26
0 6 -11 18 -25 25 -13 7 -22 18 -18 23 3 6 1 7 -5 3 -6 -4 -21 4 -33 18 -12
14 -25 23 -29 21 -5 -3 -10 1 -13 8 -3 8 -21 22 -41 31 -21 10 -34 22 -30 28
4 6 3 8 -4 4 -6 -3 -13 -2 -17 4 -4 6 -11 8 -16 5 -5 -4 -9 1 -9 10 0 9 -3 14
-7 12 -9 -5 -75 28 -68 35 2 2 -5 5 -17 5 -12 1 -24 7 -28 14 -6 8 -9 8 -13
-2 -4 -10 -6 -10 -6 -1 -1 6 -8 12 -16 12 -8 0 -15 4 -15 10 0 5 -3 9 -7 9
-21 -3 -44 2 -39 9 2 4 -15 7 -39 7 -24 -1 -42 2 -39 7 3 5 9 6 14 3 5 -3 11
-1 14 4 4 5 -2 8 -11 6 -10 -1 -24 2 -31 8 -9 7 -11 5 -6 -9 7 -18 7 -18 -13
-1 -18 15 -23 16 -35 4 -11 -12 -16 -12 -26 0 -7 7 -17 11 -23 8 -5 -4 -9 0
-10 7 0 7 -4 4 -9 -7 -5 -11 -9 -14 -9 -7 -1 8 -6 10 -13 6 -10 -6 -10 -4 0 7
6 7 12 17 12 23 0 5 -9 -1 -20 -14 -11 -13 -20 -18 -20 -11 0 7 -5 9 -10 6 -6
-4 -7 -12 -3 -18 3 -7 -4 -3 -16 8 -23 20 -65 22 -87 4 -12 -10 -36 6 -51 35
-9 16 -11 17 -16 2 -4 -10 -3 -15 3 -11 6 3 10 2 10 -3 0 -6 -7 -12 -15 -16
-8 -3 -14 0 -12 7 1 7 -7 12 -19 11 -11 0 -21 5 -21 12 0 7 5 11 10 7 5 -3 4
4 -2 15 -6 12 -17 19 -25 16 -8 -3 -17 0 -21 5 -3 6 -11 9 -16 6 -5 -4 -9 3
-9 14 0 12 -5 21 -11 21 -6 0 -9 -7 -6 -15 9 -21 -9 -27 -24 -8 -12 14 -12 16
0 8 9 -5 12 -4 8 3 -4 5 -16 8 -27 5 -12 -3 -20 0 -20 6 0 7 4 10 8 7 4 -2 14
0 22 6 12 8 12 9 -2 4 -12 -4 -18 0 -19 12 0 14 -2 13 -8 -3 -8 -19 -8 -19
-16 4 -5 18 -9 21 -16 10 -6 -10 -9 -11 -9 -1 0 6 -5 12 -12 12 -9 0 -9 -3 0
-12 7 -7 12 -17 12 -22 -1 -6 -9 -1 -20 12 l-19 22 -6 -21 c-4 -11 -4 -23 -1
-26 3 -4 6 1 6 11 0 9 5 14 10 11 6 -4 7 -11 4 -17 -5 -7 -2 -8 6 -3 9 5 11 4
6 -3 -4 -7 -2 -12 3 -12 6 0 11 5 11 11 0 5 4 7 10 4 6 -4 7 1 4 12 -5 15 -4
15 4 3 7 -9 7 -18 1 -26 -7 -8 -6 -13 3 -16 8 -3 6 -6 -5 -11 -9 -3 -24 1 -33
11 -10 9 -25 17 -35 17 -10 0 -21 4 -26 9 -4 5 -3 6 4 2 8 -4 11 1 10 13 0 11
-5 17 -10 14 -4 -2 -15 1 -23 8 -12 10 -13 9 -8 -6 6 -16 5 -16 -17 -4 -13 7
-34 14 -46 14 -12 1 -28 7 -36 13 -8 7 -16 9 -20 6z m65 -29 c20 4 30 -16 18
-36 -7 -10 -11 -8 -19 11 -5 14 -10 18 -11 10 0 -13 -1 -13 -10 0 -7 11 -10
12 -10 2 0 -22 -23 -8 -25 15 -1 19 1 20 19 8 12 -7 29 -11 38 -10z m61 -38
c12 -12 20 -37 13 -37 -2 0 -11 11 -20 25 -17 26 -13 34 7 12z m-23 -17 c0 -5
-5 -10 -11 -10 -5 0 -7 5 -4 10 3 6 8 10 11 10 2 0 4 -4 4 -10z m228 -33 c9 3
14 3 10 -2 -13 -14 -95 -13 -95 2 0 7 4 13 9 13 4 0 8 -5 8 -11 0 -5 5 -7 10
-4 8 5 7 12 -2 23 -7 9 -1 7 15 -5 16 -13 35 -19 45 -16z m65 -9 c-6 -11 -31
-10 -37 1 -3 5 5 8 18 7 13 0 22 -4 19 -8z m207 -68 c0 -10 -27 -7 -37 5 -4 4
-2 5 5 1 6 -4 12 -2 12 4 0 6 5 8 10 5 6 -3 10 -10 10 -15z m-1346 -375 c3 -8
1 -15 -4 -15 -6 0 -10 7 -10 15 0 8 2 15 4 15 2 0 6 -7 10 -15z"/>
<path d="M1753 4491 c0 -11 5 -18 9 -15 4 3 5 11 1 19 -7 21 -12 19 -10 -4z"/>
<path d="M1775 4500 c3 -5 8 -10 11 -10 2 0 4 5 4 10 0 6 -5 10 -11 10 -5 0
-7 -4 -4 -10z"/>
<path d="M1823 4423 c-7 -2 -13 -9 -13 -15 0 -7 5 -7 13 1 8 6 17 8 20 4 4 -3
7 -1 7 5 0 13 -7 14 -27 5z"/>
<path d="M2515 4380 c3 -5 8 -10 11 -10 2 0 4 5 4 10 0 6 -5 10 -11 10 -5 0
-7 -4 -4 -10z"/>
<path d="M2445 4360 c-3 -6 1 -7 9 -4 18 7 21 14 7 14 -6 0 -13 -4 -16 -10z"/>
<path d="M1345 4119 c-11 -17 1 -21 15 -4 8 9 8 15 2 15 -6 0 -14 -5 -17 -11z"/>
<path d="M1308 4092 c4 -11 1 -13 -8 -7 -9 5 -11 4 -6 -4 6 -9 11 -9 22 0 18
15 18 26 0 26 -8 0 -12 -6 -8 -15z"/>
<path d="M1250 4038 c0 -9 -6 -19 -12 -21 -10 -4 -10 -6 0 -6 14 -1 28 26 18
36 -3 4 -6 -1 -6 -9z"/>
<path d="M1142 3950 c-15 -20 -18 -28 -7 -24 8 4 15 10 15 16 0 5 4 7 8 4 4
-2 8 4 8 15 0 10 -1 19 -1 19 -1 0 -11 -13 -23 -30z"/>
<path d="M1102 3905 c4 -4 3 -14 -4 -22 -6 -7 -9 -15 -7 -18 3 -2 10 4 17 15
9 15 9 21 -1 26 -6 4 -9 4 -5 -1z"/>
<path d="M1060 3830 c-6 -11 -8 -20 -6 -20 3 0 10 9 16 20 6 11 8 20 6 20 -3
0 -10 -9 -16 -20z"/>
</g>
</svg>
